# Blender v2.79 (sub 0) OBJ File: 'keien.blend'
# www.blender.org
mtllib keien.mtl
o Icosphere_Icosphere.001
v 0.012359 -0.497210 0.057260
v 0.831992 -0.427152 1.162322
v -0.294471 -0.427152 1.815819
v -0.990671 -0.427148 0.104968
v -0.290208 -0.244743 -1.034914
v 0.831992 -0.427152 -0.952386
v 0.276314 0.147856 1.557010
v -0.798964 0.498854 1.128720
v -0.704572 0.433307 -0.852433
v 0.329069 0.498683 -1.640054
v 1.196160 0.498678 0.070797
v 0.017727 1.198101 -0.115504
v -0.141209 -0.496674 0.822078
v 0.391701 -0.494562 0.538698
v 0.312985 -0.515600 1.732076
v 0.975100 -0.515598 0.104968
v 0.399579 -0.490653 -0.412261
v -0.457548 -0.493370 0.074302
v -0.758352 -0.515598 1.110577
v -0.140434 -0.452747 -0.658579
v -0.758352 -0.515598 -0.900640
v 0.251564 -0.306232 -1.194024
v 0.915900 0.024771 0.588757
v 1.175726 0.003042 -0.586514
v 0.106538 -0.008389 2.091665
v 0.679849 -0.005096 1.697915
v -0.878859 0.131240 0.587744
v -0.644395 -0.005096 1.697915
v -0.643999 -0.004978 -1.555176
v -1.140272 0.003042 -0.586514
v 0.679427 -0.004898 -1.555058
v 0.017723 -0.005064 -1.940185
v 0.807464 0.594754 1.083050
v -0.324440 0.656990 1.836501
v -0.940501 0.587129 0.070797
v -0.278386 0.587131 -1.556311
v 0.678335 0.490625 -0.774120
v 0.200973 0.954511 1.075919
v 0.609945 0.953136 0.070797
v -0.477149 0.984761 0.705373
v -0.685696 0.447367 -0.550696
v 0.200728 0.953139 -0.934808
v -1.613876 -0.472511 0.900966
v -0.794243 -0.402453 1.802380
v -1.920706 -0.402454 2.335445
v -2.616906 -0.402449 0.939883
v -1.916443 -0.388720 -0.431397
v -0.794243 -0.277143 0.077385
v -1.349921 0.463253 2.550895
v -2.425199 0.523553 1.774970
v -2.181607 0.587581 0.158918
v -1.297166 0.523382 -0.483554
v -0.600965 0.523377 0.912009
v -1.608508 1.146164 0.912009
v -1.767444 -0.471975 1.524839
v -1.234534 -0.469864 1.293682
v -1.313250 -0.490901 2.267135
v -0.651136 -0.490900 0.939883
v -1.226657 -0.547536 0.517972
v -2.083783 -0.468672 0.914868
v -2.384587 -0.490900 1.760171
v -1.766669 -0.428048 0.317047
v -2.384587 -0.490900 0.119595
v -1.374671 -0.200418 -0.119722
v -0.683366 0.049470 1.334515
v -0.450509 0.027741 0.375832
v -1.608508 0.016310 2.560456
v -0.946386 0.019603 2.239270
v -2.505094 0.048229 1.333689
v -2.270630 0.019603 2.239270
v -2.270234 0.019721 -0.414318
v -2.766507 0.027741 0.375832
v -0.946808 0.019800 -0.414222
v -1.608512 0.019634 -0.728375
v -0.818772 0.718339 1.737717
v -1.950675 0.681689 2.352316
v -2.566736 0.611827 0.912009
v -1.904621 0.272917 -0.415244
v -0.947900 0.515323 0.222799
v -1.425263 0.979210 1.731899
v -1.016290 1.173719 0.912009
v -2.103384 1.139381 1.429641
v -2.087620 0.977838 0.405049
v -1.425507 0.977838 0.091724
v -1.347556 -0.472145 -0.955082
v -1.224550 -0.438280 -0.299564
v -1.907399 -0.438280 -0.392248
v -1.829232 -0.438278 -1.236362
v -1.103111 -0.431642 -1.653016
v -0.724362 -0.438280 -1.086385
v -1.578502 -0.019806 -0.318376
v -1.981473 0.009343 -0.798301
v -1.468607 -0.022342 -1.507289
v -0.888365 0.009260 -1.349348
v -0.875732 0.009258 -0.648067
v -1.348240 0.362760 -0.948444
v -1.600476 -0.471886 -0.716298
v -1.283529 -0.470866 -0.662860
v -1.602712 -0.481035 -0.242306
v -0.907343 -0.481034 -0.650310
v -1.054906 -0.468976 -1.014335
v -1.571958 -0.470290 -1.088833
v -1.958135 -0.481034 -0.792944
v -1.249895 -0.450653 -1.266976
v -1.482426 -0.481034 -1.541259
v -0.939411 -0.379829 -1.349334
v -1.049536 -0.219825 -0.487956
v -0.649700 -0.230328 -0.847778
v -1.826233 -0.235854 -0.196538
v -1.422584 -0.234262 -0.145644
v -1.890985 -0.220424 -1.023401
v -2.043615 -0.234262 -0.540438
v -1.384900 -0.234205 -1.576220
v -1.735835 -0.230328 -1.538243
v -0.653361 -0.234167 -1.356106
v -0.872588 -0.234247 -1.696673
v -1.305501 0.055700 -0.392439
v -1.926345 0.085784 -0.393487
v -1.797620 0.052014 -1.234119
v -1.102251 0.052015 -1.642123
v -0.838588 0.005365 -1.065867
v -1.500043 0.229603 -0.519837
v -1.070507 0.228939 -0.771887
v -1.724953 0.147230 -0.868470
v -1.425929 0.228940 -1.322520
v -1.024564 0.228940 -1.268043
vn 0.0049 -1.0000 0.0017
vn 0.0289 -0.9958 0.0872
vn -0.0082 -1.0000 -0.0009
vn -0.0103 -0.9982 -0.0598
vn -0.0463 -0.9976 -0.0521
vn 0.9907 -0.0124 0.1351
vn 0.0302 -0.5699 0.8212
vn -0.9743 0.0005 0.2251
vn 0.2907 -0.7784 -0.5564
vn 0.0752 -0.8076 -0.5849
vn 0.9741 0.0852 0.2096
vn -0.4605 -0.1368 0.8771
vn -0.9763 0.0084 0.2164
vn -0.1796 -0.9342 -0.3084
vn 0.8472 -0.3099 -0.4316
vn 0.2929 0.5098 0.8089
vn -0.6623 0.6910 0.2896
vn 0.3522 0.9336 -0.0655
vn 0.0491 0.8436 -0.5347
vn 0.5722 0.7380 -0.3577
vn 0.4222 0.8901 -0.1718
vn 0.7143 0.6366 -0.2907
vn 0.7147 0.6399 -0.2823
vn -0.5740 0.7405 -0.3496
vn -0.5240 0.8465 -0.0946
vn -0.3688 0.9293 -0.0202
vn -0.6527 0.7297 -0.2038
vn -0.3138 0.8907 -0.3290
vn -0.7566 0.6355 0.1542
vn -0.0714 0.9750 0.2103
vn -0.1166 0.9496 0.2909
vn 0.6545 0.4314 0.6209
vn 0.3413 0.9298 0.1376
vn 0.4980 0.8435 0.2015
vn 0.6050 0.7804 0.1582
vn 0.7079 0.5532 -0.4391
vn 0.7175 0.5886 -0.3725
vn 0.8024 0.5044 -0.3189
vn -0.0397 0.5294 -0.8474
vn -0.4805 0.2951 -0.8259
vn -0.7901 0.4872 -0.3719
vn -0.7563 0.5860 -0.2909
vn -0.9734 0.1015 0.2056
vn -0.9908 0.0180 0.1341
vn -0.8227 0.2959 0.4854
vn -0.4639 0.0389 0.8850
vn 0.6939 0.6013 0.3961
vn 0.0255 0.7129 0.7008
vn 0.9781 0.0054 0.2083
vn 0.9193 -0.1430 0.3666
vn 0.4928 0.1999 -0.8468
vn 0.2497 -0.8682 -0.4287
vn -0.1974 -0.9290 -0.3131
vn -0.7564 0.5238 -0.3919
vn -0.8327 -0.3566 -0.4237
vn -0.8369 -0.5273 -0.1470
vn -0.9774 -0.0774 0.1969
vn -0.9787 -0.0169 0.2046
vn -0.7197 -0.4488 0.5297
vn 0.2276 0.9128 0.3390
vn 0.5352 -0.3326 0.7765
vn 0.6910 -0.4592 0.5582
vn 0.9248 -0.3170 0.2103
vn 0.9723 -0.0874 0.2166
vn 0.8324 -0.5315 -0.1571
vn -0.1161 -0.9714 -0.2072
vn 0.0398 -0.9708 -0.2365
vn -0.2194 -0.8882 -0.4036
vn 0.2948 -0.7818 -0.5494
vn 0.1050 -0.9944 -0.0097
vn -0.1197 -0.9910 0.0595
vn -0.1263 -0.9903 -0.0579
vn 0.0239 -0.9996 -0.0145
vn 0.0679 -0.9945 0.0800
vn 0.0361 -0.9955 -0.0882
vn -0.0393 -0.9992 -0.0044
vn 0.0121 -0.9999 -0.0040
vn -0.1374 -0.9893 0.0480
vn -0.0056 -0.9998 -0.0180
vn 0.1607 -0.9870 -0.0068
vn 0.0049 -1.0000 0.0021
vn 0.0289 -0.9939 0.1067
vn -0.0082 -1.0000 -0.0012
vn -0.0103 -0.9973 -0.0732
vn -0.2090 -0.9777 -0.0198
vn 0.9833 -0.0654 0.1699
vn 0.0269 -0.4886 0.8721
vn -0.9621 0.0005 0.2726
vn -0.6103 -0.5031 -0.6119
vn 0.0688 -0.8443 -0.5314
vn 0.9583 0.0552 0.2804
vn -0.4318 -0.1555 0.8885
vn -0.9647 0.0095 0.2631
vn -0.4068 -0.3165 -0.8570
vn 0.7771 -0.4022 -0.4841
vn 0.3432 0.8086 0.4778
vn -0.6945 0.5921 0.4087
vn -0.7877 0.4530 -0.4174
vn -0.3562 0.6929 -0.6269
vn 0.7741 0.4944 -0.3954
vn -0.0454 0.9765 -0.2105
vn 0.6766 0.5648 -0.4724
vn 0.7008 0.6275 -0.3394
vn -0.1052 0.9693 -0.2224
vn -0.3115 0.6852 -0.6583
vn -0.6231 0.5191 -0.5851
vn -0.1764 0.9719 -0.1559
vn -0.6820 0.7208 -0.1241
vn -0.8225 0.5362 0.1897
vn 0.1573 0.9740 0.1632
vn 0.0146 0.8967 0.4424
vn 0.1352 0.8439 0.5192
vn -0.0455 0.9768 0.2091
vn 0.3620 0.8502 0.3823
vn 0.8390 0.5358 0.0948
vn 0.7069 0.6072 -0.3629
vn 0.6937 0.5691 -0.4415
vn 0.7826 0.4920 -0.3814
vn -0.3190 0.5665 -0.7598
vn -0.3650 0.5243 -0.7693
vn -0.4619 0.6648 -0.5871
vn -0.7091 0.5929 -0.3817
vn -0.9613 0.0897 0.2604
vn -0.9865 0.0143 0.1633
vn -0.7779 0.2798 0.5627
vn -0.4355 0.0571 0.8984
vn -0.2540 0.1674 0.9526
vn 0.7608 0.2810 0.5851
vn 0.9597 0.0256 0.2798
vn 0.9686 0.0490 0.2439
vn 0.4225 0.1714 -0.8900
vn 0.1888 -0.8981 -0.3972
vn 0.5157 -0.7231 -0.4596
vn -0.6998 0.5586 -0.4452
vn -0.7975 -0.3415 -0.4974
vn -0.8324 -0.5244 -0.1792
vn -0.9664 -0.0679 0.2481
vn -0.9681 -0.0186 0.2501
vn -0.6738 -0.4201 0.6079
vn 0.4259 -0.2277 0.8757
vn 0.4229 -0.2565 0.8691
vn 0.6425 -0.4270 0.6363
vn 0.9712 0.0406 0.2350
vn 0.9646 -0.1155 0.2369
vn 0.7599 -0.5902 -0.2724
vn 0.0499 -0.8723 -0.4864
vn -0.0180 -0.8799 -0.4748
vn 0.3895 -0.9124 -0.1259
vn 0.1252 -0.9891 -0.0770
vn 0.1049 -0.9944 -0.0119
vn -0.1196 -0.9901 0.0729
vn -0.1262 -0.9895 -0.0709
vn 0.0239 -0.9996 -0.0178
vn 0.0678 -0.9929 0.0980
vn 0.2921 -0.9159 -0.2754
vn 0.0247 -0.9947 0.0999
vn -0.0948 -0.9906 0.0982
vn -0.1374 -0.9888 0.0588
vn -0.0056 -0.9997 -0.0221
vn 0.1607 -0.9870 -0.0083
vn 0.0026 -1.0000 0.0038
vn -0.0300 -0.9951 0.0941
vn -0.0055 -1.0000 -0.0047
vn 0.0276 -0.9978 -0.0601
vn -0.0033 -0.9976 -0.0698
vn 0.7407 -0.0142 0.6716
vn -0.4330 -0.5308 0.7286
vn -0.9603 0.0006 -0.2791
vn -0.2795 -0.0255 -0.9598
vn 0.3864 -0.7816 -0.4897
vn 0.6709 0.0965 0.7352
vn -0.8327 -0.1742 0.5256
vn -0.9574 0.0109 -0.2887
vn -0.2286 0.0519 -0.9721
vn 0.9427 -0.3336 -0.0043
vn 0.0411 0.6200 0.7835
vn -0.4916 0.8655 -0.0965
vn -0.4391 0.5794 -0.6866
vn 0.6930 0.5854 -0.4208
vn 0.7303 0.6806 0.0586
vn 0.4139 0.9095 0.0383
vn 0.7358 0.6737 0.0681
vn 0.8187 0.5579 -0.1361
vn 0.0468 0.9374 -0.3451
vn 0.0593 0.8976 -0.4368
vn -0.3817 0.5887 -0.7125
vn -0.5177 0.8340 -0.1908
vn -0.4524 0.8808 -0.1395
vn -0.4961 0.8592 -0.1252
vn -0.4776 0.8726 0.1019
vn -0.3236 0.9461 -0.0148
vn 0.0209 0.6243 0.7809
vn 0.2111 0.9098 0.3574
vn 0.3250 0.7679 0.5519
vn 0.4200 0.6988 0.5791
vn 0.7508 0.6578 0.0606
vn 0.7849 0.6195 -0.0103
vn 0.7130 0.6915 -0.1157
vn 0.6749 0.6182 -0.4028
vn -0.2289 0.0019 -0.9735
vn -0.3685 0.1528 -0.9170
vn -0.4099 0.6255 -0.6639
vn -0.9518 0.1028 -0.2888
vn -0.9218 0.0164 -0.3873
vn -0.9466 0.3150 0.0694
vn -0.8434 0.0641 0.5334
vn -0.0284 0.5155 0.8564
vn 0.0310 0.6405 0.7673
vn 0.6283 0.3413 0.6991
vn 0.5170 0.1910 0.8344
vn 0.6480 0.6372 -0.4173
vn 0.4308 -0.8589 -0.2771
vn 0.6148 -0.7625 -0.2013
vn -0.1006 0.2717 -0.9571
vn -0.1081 -0.0974 -0.9894
vn -0.5781 -0.5774 -0.5766
vn -0.9500 -0.0778 -0.3025
vn -0.9531 -0.0213 -0.3018
vn -0.8707 -0.4652 0.1599
vn -0.1044 0.5767 0.8103
vn -0.1188 -0.2858 0.9509
vn 0.1839 -0.4720 0.8622
vn 0.6691 0.0118 0.7431
vn 0.6642 -0.0990 0.7410
vn 0.7692 -0.5811 0.2658
vn 0.0365 -0.9688 -0.2452
vn 0.1674 -0.9655 -0.1992
vn 0.2324 -0.9718 0.0405
vn 0.1292 -0.9916 0.0003
vn 0.0829 -0.9958 0.0400
vn -0.1230 -0.9924 -0.0008
vn -0.0588 -0.9919 -0.1127
vn 0.0261 -0.9997 -0.0023
vn 0.0028 -0.9944 0.1057
vn 0.0783 -0.9948 -0.0647
vn -0.0263 -0.9994 -0.0225
vn 0.0112 -0.9999 0.0019
vn -0.1294 -0.9914 -0.0197
vn 0.0065 -0.9998 -0.0193
vn 0.1224 -0.9901 0.0689
usemtl Material.003
s off
f 1//1 14//1 13//1
f 2//2 14//2 16//2
f 1//3 13//3 18//3
f 1//4 18//4 20//4
f 1//5 20//5 17//5
f 2//6 16//6 23//6
f 3//7 15//7 25//7
f 4//8 19//8 27//8
f 5//9 21//9 29//9
f 6//10 22//10 31//10
f 2//11 23//11 26//11
f 3//12 25//12 28//12
f 4//13 27//13 30//13
f 5//14 29//14 32//14
f 6//15 31//15 24//15
f 7//16 33//16 38//16
f 8//17 34//17 40//17
f 9//18 35//18 41//18
f 10//19 36//19 42//19
f 11//20 37//20 39//20
f 39//21 42//21 12//21
f 39//22 37//22 42//22
f 37//23 10//23 42//23
f 42//24 41//24 12//24
f 42//25 36//25 41//25
f 36//26 9//26 41//26
f 41//27 40//27 12//27
f 41//28 35//28 40//28
f 35//29 8//29 40//29
f 40//30 38//30 12//30
f 40//31 34//31 38//31
f 34//32 7//32 38//32
f 38//33 39//33 12//33
f 38//34 33//34 39//34
f 33//35 11//35 39//35
f 24//36 37//36 11//36
f 24//37 31//37 37//37
f 31//38 10//38 37//38
f 32//39 36//39 10//39
f 32//40 29//40 36//40
f 29//41 9//41 36//41
f 30//42 35//42 9//42
f 30//43 27//43 35//43
f 27//44 8//44 35//44
f 28//45 34//45 8//45
f 28//46 25//46 34//46
f 25//47 7//47 34//47
f 26//48 33//48 7//48
f 26//49 23//49 33//49
f 23//50 11//50 33//50
f 31//51 32//51 10//51
f 31//52 22//52 32//52
f 22//53 5//53 32//53
f 29//54 30//54 9//54
f 29//55 21//55 30//55
f 21//56 4//56 30//56
f 27//57 28//57 8//57
f 27//58 19//58 28//58
f 19//59 3//59 28//59
f 25//60 26//60 7//60
f 25//61 15//61 26//61
f 15//62 2//62 26//62
f 23//63 24//63 11//63
f 23//64 16//64 24//64
f 16//65 6//65 24//65
f 17//66 22//66 6//66
f 17//67 20//67 22//67
f 20//68 5//68 22//68
f 20//69 21//69 5//69
f 20//70 18//70 21//70
f 18//71 4//71 21//71
f 18//72 19//72 4//72
f 18//73 13//73 19//73
f 13//74 3//74 19//74
f 16//75 17//75 6//75
f 16//76 14//76 17//76
f 14//77 1//77 17//77
f 13//78 15//78 3//78
f 13//79 14//79 15//79
f 14//80 2//80 15//80
f 43//81 56//81 55//81
f 44//82 56//82 58//82
f 43//83 55//83 60//83
f 43//84 60//84 62//84
f 43//85 62//85 59//85
f 44//86 58//86 65//86
f 45//87 57//87 67//87
f 46//88 61//88 69//88
f 47//89 63//89 71//89
f 48//90 64//90 73//90
f 44//91 65//91 68//91
f 45//92 67//92 70//92
f 46//93 69//93 72//93
f 47//94 71//94 74//94
f 48//95 73//95 66//95
f 49//96 75//96 80//96
f 50//97 76//97 82//97
f 51//98 77//98 83//98
f 52//99 78//99 84//99
f 53//100 79//100 81//100
f 81//101 84//101 54//101
f 81//102 79//102 84//102
f 79//103 52//103 84//103
f 84//104 83//104 54//104
f 84//105 78//105 83//105
f 78//106 51//106 83//106
f 83//107 82//107 54//107
f 83//108 77//108 82//108
f 77//109 50//109 82//109
f 82//110 80//110 54//110
f 82//111 76//111 80//111
f 76//112 49//112 80//112
f 80//113 81//113 54//113
f 80//114 75//114 81//114
f 75//115 53//115 81//115
f 66//116 79//116 53//116
f 66//117 73//117 79//117
f 73//118 52//118 79//118
f 74//119 78//119 52//119
f 74//120 71//120 78//120
f 71//121 51//121 78//121
f 72//122 77//122 51//122
f 72//123 69//123 77//123
f 69//124 50//124 77//124
f 70//125 76//125 50//125
f 70//126 67//126 76//126
f 67//127 49//127 76//127
f 68//128 75//128 49//128
f 68//129 65//129 75//129
f 65//130 53//130 75//130
f 73//131 74//131 52//131
f 73//132 64//132 74//132
f 64//133 47//133 74//133
f 71//134 72//134 51//134
f 71//135 63//135 72//135
f 63//136 46//136 72//136
f 69//137 70//137 50//137
f 69//138 61//138 70//138
f 61//139 45//139 70//139
f 67//140 68//140 49//140
f 67//141 57//141 68//141
f 57//142 44//142 68//142
f 65//143 66//143 53//143
f 65//144 58//144 66//144
f 58//145 48//145 66//145
f 59//146 64//146 48//146
f 59//147 62//147 64//147
f 62//148 47//148 64//148
f 62//149 63//149 47//149
f 62//150 60//150 63//150
f 60//151 46//151 63//151
f 60//152 61//152 46//152
f 60//153 55//153 61//153
f 55//154 45//154 61//154
f 58//155 59//155 48//155
f 58//156 56//156 59//156
f 56//157 43//157 59//157
f 55//158 57//158 45//158
f 55//159 56//159 57//159
f 56//160 44//160 57//160
f 85//161 98//161 97//161
f 86//162 98//162 100//162
f 85//163 97//163 102//163
f 85//164 102//164 104//164
f 85//165 104//165 101//165
f 86//166 100//166 107//166
f 87//167 99//167 109//167
f 88//168 103//168 111//168
f 89//169 105//169 113//169
f 90//170 106//170 115//170
f 86//171 107//171 110//171
f 87//172 109//172 112//172
f 88//173 111//173 114//173
f 89//174 113//174 116//174
f 90//175 115//175 108//175
f 91//176 117//176 122//176
f 92//177 118//177 124//177
f 93//178 119//178 125//178
f 94//179 120//179 126//179
f 95//180 121//180 123//180
f 123//181 126//181 96//181
f 123//182 121//182 126//182
f 121//183 94//183 126//183
f 126//184 125//184 96//184
f 126//185 120//185 125//185
f 120//186 93//186 125//186
f 125//187 124//187 96//187
f 125//188 119//188 124//188
f 119//189 92//189 124//189
f 124//190 122//190 96//190
f 124//191 118//191 122//191
f 118//192 91//192 122//192
f 122//193 123//193 96//193
f 122//194 117//194 123//194
f 117//195 95//195 123//195
f 108//196 121//196 95//196
f 108//197 115//197 121//197
f 115//198 94//198 121//198
f 116//199 120//199 94//199
f 116//200 113//200 120//200
f 113//201 93//201 120//201
f 114//202 119//202 93//202
f 114//203 111//203 119//203
f 111//204 92//204 119//204
f 112//205 118//205 92//205
f 112//206 109//206 118//206
f 109//207 91//207 118//207
f 110//208 117//208 91//208
f 110//209 107//209 117//209
f 107//210 95//210 117//210
f 115//211 116//211 94//211
f 115//212 106//212 116//212
f 106//213 89//213 116//213
f 113//214 114//214 93//214
f 113//215 105//215 114//215
f 105//216 88//216 114//216
f 111//217 112//217 92//217
f 111//218 103//218 112//218
f 103//219 87//219 112//219
f 109//220 110//220 91//220
f 109//221 99//221 110//221
f 99//222 86//222 110//222
f 107//223 108//223 95//223
f 107//224 100//224 108//224
f 100//225 90//225 108//225
f 101//226 106//226 90//226
f 101//227 104//227 106//227
f 104//228 89//228 106//228
f 104//229 105//229 89//229
f 104//230 102//230 105//230
f 102//231 88//231 105//231
f 102//232 103//232 88//232
f 102//233 97//233 103//233
f 97//234 87//234 103//234
f 100//235 101//235 90//235
f 100//236 98//236 101//236
f 98//237 85//237 101//237
f 97//238 99//238 87//238
f 97//239 98//239 99//239
f 98//240 86//240 99//240
